HIERARCHY
ROOT Hips
{
	OFFSET -0.001795 -0.223333 0.028219
	CHANNELS 6 Xposition Yposition Zposition Zrotation Yrotation Xrotation 
	JOINT LeftUpLeg
	{
		OFFSET 0.069520 -0.091406 -0.006815
		CHANNELS 3 Zrotation Yrotation Xrotation
		JOINT LeftLeg
		{
			OFFSET 0.034277 -0.375199 -0.004496
			CHANNELS 3 Zrotation Yrotation Xrotation
			JOINT LeftFoot
			{
				OFFSET -0.013596 -0.397961 -0.043693
				CHANNELS 3 Zrotation Yrotation Xrotation
				JOINT LeftToe
				{
					OFFSET 0.026358 -0.055791 0.119288
					CHANNELS 3 Zrotation Yrotation Xrotation
					End Site
					{
						OFFSET 0.000000 0.000000 0.000000
					}
				}
			}
		}
	}
	JOINT RightUpLeg
	{
		OFFSET -0.067670 -0.090522 -0.004320
		CHANNELS 3 Zrotation Yrotation Xrotation
		JOINT RightLeg
		{
			OFFSET -0.038290 -0.382569 -0.008850
			CHANNELS 3 Zrotation Yrotation Xrotation
			JOINT RightFoot
			{
				OFFSET 0.015774 -0.398415 -0.042312
				CHANNELS 3 Zrotation Yrotation Xrotation
				JOINT RightToe
				{
					OFFSET -0.025372 -0.048144 0.123348
					CHANNELS 3 Zrotation Yrotation Xrotation
					End Site
					{
						OFFSET 0.000000 0.000000 0.000000
					}
				}
			}
		}
	}
	JOINT Spine
	{
		OFFSET -0.002533 0.108963 -0.026696
		CHANNELS 3 Zrotation Yrotation Xrotation
		JOINT Spine1
		{
			OFFSET 0.005487 0.135180 0.001092
			CHANNELS 3 Zrotation Yrotation Xrotation
			JOINT Spine2
			{
				OFFSET 0.001457 0.052922 0.025425
				CHANNELS 3 Zrotation Yrotation Xrotation
				JOINT Neck
				{
					OFFSET -0.002778 0.213870 -0.042857
					CHANNELS 3 Zrotation Yrotation Xrotation
					JOINT Head
					{
						OFFSET 0.005152 0.064970 0.051349
						CHANNELS 3 Zrotation Yrotation Xrotation
						End Site
						{
							OFFSET 0.000000 0.000000 0.000000
						}
					}
				}
				JOINT LeftShoulder
				{
					OFFSET 0.078845 0.121749 -0.034090
					CHANNELS 3 Zrotation Yrotation Xrotation
					JOINT LeftArm
					{
						OFFSET 0.090977 0.030469 -0.008868
						CHANNELS 3 Zrotation Yrotation Xrotation
						JOINT LeftForeArm
						{
							OFFSET 0.259612 -0.012772 -0.027456
							CHANNELS 3 Zrotation Yrotation Xrotation
							JOINT LeftHand
							{
								OFFSET 0.249234 0.008986 -0.001171
								CHANNELS 3 Zrotation Yrotation Xrotation
								End Site
								{
									OFFSET 0.000000 0.000000 0.000000
								}
							}
						}
					}
				}
				JOINT RightShoulder
				{
					OFFSET -0.081759 0.118833 -0.038615
					CHANNELS 3 Zrotation Yrotation Xrotation
					JOINT RightArm
					{
						OFFSET -0.096012 0.032551 -0.009143
						CHANNELS 3 Zrotation Yrotation Xrotation
						JOINT RightForeArm
						{
							OFFSET -0.253742 -0.013329 -0.021401
							CHANNELS 3 Zrotation Yrotation Xrotation
							JOINT RightHand
							{
								OFFSET -0.255298 0.007772 -0.005559
								CHANNELS 3 Zrotation Yrotation Xrotation
								End Site
								{
									OFFSET 0.000000 0.000000 0.000000
								}
							}
						}
					}
				}
			}
		}
	}
}
MOTION
Frames: 17
Frame Time: 0.050000
3.707777 0.897756 0.329584 6.331648 -69.442785 -13.019317 0.395595 4.495866 17.175740 5.249511 15.658339 44.742400 -8.051126 -12.963234 12.989198 0.000000 0.000000 0.000000 -2.523043 2.752854 -18.499082 13.257743 3.437946 23.447289 -18.749282 -31.501468 11.334117 0.000000 0.000000 0.000000 13.899061 0.357472 16.494266 -11.452728 2.029871 -23.502157 -0.555957 15.526882 28.544218 8.290865 -7.896662 -23.900722 0.000000 0.000000 0.000000 -6.658175 -12.661779 8.488288 -60.959913 -12.422174 -1.240933 -11.838789 -34.801165 6.615629 0.000000 0.000000 0.000000 14.049208 -0.794151 -8.035551 52.869462 -0.250323 -6.678984 22.305303 38.707180 5.015359 0.000000 0.000000 0.000000 
3.770293 0.890450 0.309860 3.561090 -69.216891 -9.445659 -0.462494 6.231362 21.418415 3.769049 11.596342 37.525301 -6.959208 -11.491596 15.591673 0.000000 0.000000 0.000000 -2.469167 3.839496 -22.201688 12.846274 2.785983 19.692966 -17.453882 -31.528458 15.000400 0.000000 0.000000 0.000000 14.896489 0.288671 14.994442 -9.287747 1.348095 -22.565112 -4.085763 15.452416 27.692334 9.723321 -9.112442 -21.318059 0.000000 0.000000 0.000000 -1.612454 -10.725469 5.519032 -65.226987 -10.978573 -0.053228 -10.891980 -33.549720 6.134392 0.000000 0.000000 0.000000 14.191413 -0.695852 -8.249227 54.303091 0.321682 -6.852150 21.756100 37.710473 4.757849 0.000000 0.000000 0.000000 
3.838052 0.890416 0.287531 2.604004 -68.566151 -8.197807 -2.596434 7.801609 24.305090 2.839529 6.562840 28.061874 -0.419915 -1.994354 18.381995 0.000000 0.000000 0.000000 -3.274891 4.397723 -24.056931 11.835178 1.912585 13.539953 -15.157463 -30.187915 19.070976 0.000000 0.000000 0.000000 13.490811 0.082387 13.342663 -9.769862 1.443624 -21.526343 -2.409728 13.815829 28.113797 9.039998 -8.605774 -22.132110 0.000000 0.000000 0.000000 -2.159831 -12.164383 6.430089 -63.846810 -11.451639 0.111736 -8.647592 -36.577218 6.117782 0.000000 0.000000 0.000000 14.364183 -2.729132 -9.325398 53.107335 -0.235300 -6.879214 25.480795 35.853884 5.303575 0.000000 0.000000 0.000000 
3.908371 0.892519 0.263302 0.144123 -67.008114 -5.276426 -1.990394 8.954877 26.884449 2.843395 2.690456 18.997566 8.139540 10.847500 25.908921 0.000000 0.000000 0.000000 -5.036518 4.661806 -25.156142 12.819826 1.751347 5.291239 -16.889761 -31.969950 25.533831 0.000000 0.000000 0.000000 12.809301 -0.040459 13.297728 -9.177651 1.349598 -22.694850 -2.525132 10.921016 28.165304 9.412247 -9.139012 -19.607707 0.000000 0.000000 0.000000 -1.573390 -10.003916 5.382422 -63.292902 -10.798486 0.318197 -9.788853 -37.513170 7.026264 0.000000 0.000000 0.000000 13.104153 -3.692117 -9.641766 54.177176 -3.489909 -8.807814 29.178727 32.901991 5.255184 0.000000 0.000000 0.000000 
3.977768 0.894436 0.239762 0.592998 -67.241274 -4.591862 -3.501045 8.972454 26.328238 0.679865 1.838367 12.865863 20.226633 28.109005 32.760818 0.000000 0.000000 0.000000 -6.596929 5.205161 -26.977981 12.392649 2.000201 0.252606 -19.413416 -33.772853 29.961638 0.000000 0.000000 0.000000 11.359409 -0.127536 12.883396 -7.910846 1.040661 -23.846890 -2.972243 11.806303 29.689686 8.175628 -8.530811 -21.823951 0.000000 0.000000 0.000000 -1.568586 -10.676885 5.615499 -60.764836 -10.467798 -0.341922 -8.676308 -38.020228 6.705257 0.000000 0.000000 0.000000 11.723843 -5.159058 -9.525882 55.932601 -6.034957 -11.099820 31.462919 29.880417 5.080680 0.000000 0.000000 0.000000 
4.043136 0.898701 0.218337 0.116520 -67.430906 -4.327748 -4.294047 7.960482 24.188634 -1.110437 1.931267 10.049712 33.491477 41.520333 42.074139 0.000000 0.000000 0.000000 -6.376105 5.282320 -27.100696 11.567269 1.769171 0.985362 -25.211154 -37.546614 30.679680 0.000000 0.000000 0.000000 10.672875 -0.066520 14.645243 -8.546661 1.215694 -24.643516 -2.912773 9.833252 29.663740 8.329521 -8.723082 -22.472581 0.000000 0.000000 0.000000 -2.086420 -9.709317 5.536541 -58.980202 -9.459436 -1.065884 -9.334166 -37.879707 7.017250 0.000000 0.000000 0.000000 11.815451 -5.339820 -10.029531 56.766270 -8.689947 -12.669279 31.910515 26.960987 4.347957 0.000000 0.000000 0.000000 
4.102603 0.906226 0.200352 1.457729 -67.488656 -5.033914 -5.213731 6.586270 21.202654 -2.276887 2.255400 9.170317 43.013708 48.136417 48.437602 0.000000 0.000000 0.000000 -8.058228 5.201489 -27.052054 12.053353 1.583999 8.061265 -28.142788 -40.582964 25.328213 0.000000 0.000000 0.000000 10.276966 -0.062975 14.637449 -8.996733 1.284691 -23.250833 -3.747129 9.665771 29.115204 8.776867 -9.022104 -21.729917 0.000000 0.000000 0.000000 -1.741260 -9.852049 5.401996 -58.307637 -9.188148 -1.180393 -9.429991 -35.697316 6.403469 0.000000 0.000000 0.000000 12.912523 -6.043773 -10.946474 57.310468 -11.255837 -13.946949 32.626115 26.505454 4.419032 0.000000 0.000000 0.000000 
4.155310 0.919893 0.185632 1.257458 -68.481599 -4.618951 -6.295231 5.719563 18.995999 -2.573943 1.846981 6.216913 46.525309 50.448701 50.554429 0.000000 0.000000 0.000000 -7.970942 4.450731 -24.432879 12.795212 2.339866 17.383899 -25.325776 -38.707468 16.521326 0.000000 0.000000 0.000000 10.072646 -0.104833 13.906291 -8.315291 0.969183 -21.878144 -4.366754 11.340823 29.340948 10.780213 -9.965403 -23.388968 0.000000 0.000000 0.000000 -2.357923 -10.689381 5.987336 -57.496338 -8.320662 -2.096650 -8.319411 -35.359367 5.843355 0.000000 0.000000 0.000000 14.230014 -6.428871 -11.707903 57.385852 -11.274849 -13.860570 31.525633 25.359505 4.211950 0.000000 0.000000 0.000000 
4.199875 0.935174 0.172660 0.085412 -67.932267 -2.899609 -6.243408 4.271334 15.890527 -1.346456 1.314940 5.496297 45.133024 47.758138 51.832094 0.000000 0.000000 0.000000 -7.861589 3.359853 -20.191127 13.645761 2.975798 22.191119 -31.898921 -41.656576 27.541531 0.000000 0.000000 0.000000 10.054687 -0.206808 12.726629 -8.916960 1.144535 -20.659922 -3.670145 10.502155 28.618152 10.071541 -9.660726 -21.424194 0.000000 0.000000 0.000000 -2.857984 -9.481660 5.717403 -57.232599 -6.543197 -2.974195 -10.959734 -34.127991 6.468149 0.000000 0.000000 0.000000 13.975906 -6.220883 -11.387423 58.531939 -12.998528 -15.269261 31.318714 24.259217 3.983514 0.000000 0.000000 0.000000 
4.237145 0.947919 0.160806 -0.997382 -67.798576 -0.829022 -5.676563 3.078169 13.032324 1.479109 0.485788 5.693066 36.939821 39.083378 50.694157 0.000000 0.000000 0.000000 -7.345472 2.460114 -15.682816 14.021294 3.306683 24.353760 -39.756154 -37.962297 51.405415 0.000000 0.000000 0.000000 9.170395 -0.337489 9.852429 -7.991072 0.838101 -19.587247 -3.392171 11.742778 28.880625 10.618520 -10.038547 -19.614464 0.000000 0.000000 0.000000 -3.526833 -8.411010 5.448371 -56.989300 -5.369497 -3.718207 -11.677950 -33.064937 6.425839 0.000000 0.000000 0.000000 15.302942 -6.048809 -11.857487 57.162602 -13.510783 -14.824642 30.890876 24.221985 4.065092 0.000000 0.000000 0.000000 
4.268913 0.954677 0.149806 -0.741164 -67.064138 0.037770 -4.919785 2.132080 10.392412 3.670702 0.151797 7.546046 25.399048 27.996446 42.885917 0.000000 0.000000 0.000000 -6.003244 1.661664 -10.857881 13.330448 3.554242 25.861887 -33.696419 -32.892825 55.101543 0.000000 0.000000 0.000000 8.358172 -0.369441 7.669121 -7.822377 0.805280 -19.436260 -3.535958 12.025840 28.013846 10.891301 -10.243103 -16.821861 0.000000 0.000000 0.000000 -3.502426 -7.608016 5.021186 -56.459416 -3.891602 -4.332099 -13.017723 -32.278304 6.633595 0.000000 0.000000 0.000000 16.521530 -5.756723 -12.353303 56.927551 -15.873627 -15.598006 29.610183 24.791808 4.081018 0.000000 0.000000 0.000000 
4.296940 0.956906 0.140280 -0.025689 -67.444260 0.168922 -4.169801 1.413203 7.909783 4.100889 0.487816 10.033668 17.540339 19.452966 34.812435 0.000000 0.000000 0.000000 -4.634350 1.114723 -5.974319 10.940045 3.100718 23.000905 -26.460587 -32.117497 42.013935 0.000000 0.000000 0.000000 7.885191 -0.310729 5.234442 -8.846638 1.123214 -18.515713 -2.339707 12.904868 27.672467 9.338148 -9.262247 -15.159508 0.000000 0.000000 0.000000 -4.108682 -7.703167 5.247253 -56.729378 -4.292989 -4.153043 -11.261466 -30.218785 5.417901 0.000000 0.000000 0.000000 17.948668 -5.199673 -12.733315 58.052879 -15.930529 -15.719551 26.105390 26.351535 3.924585 0.000000 0.000000 0.000000 
4.322412 0.956548 0.132447 1.125572 -66.563581 -0.564023 -4.073753 1.089399 6.633398 5.198480 0.409153 11.307313 11.425204 12.938767 25.855172 0.000000 0.000000 0.000000 -3.992822 0.951741 -1.638613 8.815041 1.983384 16.834951 -24.669300 -31.662834 33.212326 0.000000 0.000000 0.000000 7.391404 -0.254291 3.960878 -9.799328 1.473219 -19.007171 -1.473437 12.666955 27.992404 9.299552 -9.141435 -15.639261 0.000000 0.000000 0.000000 -3.759467 -7.362757 4.914296 -57.038095 -4.316466 -3.940809 -10.374825 -31.126934 5.435526 0.000000 0.000000 0.000000 17.604324 -6.388730 -13.085568 59.201818 -16.515592 -16.632040 26.795786 27.867407 4.272292 0.000000 0.000000 0.000000 
4.347027 0.954590 0.125941 1.747792 -67.236306 -0.960716 -4.110004 0.845839 5.582911 3.965127 0.623097 10.456579 11.868582 14.282708 23.667435 0.000000 0.000000 0.000000 -3.468209 0.948093 0.695254 6.908320 1.452542 13.015089 -20.964983 -29.374046 20.993944 0.000000 0.000000 0.000000 7.161205 -0.193066 3.025769 -10.389947 1.624224 -19.600795 -0.597590 13.349587 28.824887 8.941711 -8.940369 -15.632660 0.000000 0.000000 0.000000 -4.205356 -7.577509 5.211575 -56.521948 -5.338444 -3.621074 -8.974412 -31.868530 5.198457 0.000000 0.000000 0.000000 17.871177 -6.226464 -13.267005 59.708022 -16.405364 -16.726381 26.142689 29.614842 4.423225 0.000000 0.000000 0.000000 
4.371480 0.952886 0.120349 1.617120 -68.983966 -0.888049 -3.981825 0.721501 4.953174 2.582718 0.891340 9.350949 12.704075 16.193075 22.072459 0.000000 0.000000 0.000000 -3.328213 0.979595 0.933794 5.965672 1.169978 10.139162 -20.340651 -28.132407 17.730627 0.000000 0.000000 0.000000 7.183273 -0.192627 3.042953 -10.425645 1.554142 -20.711734 -0.361504 14.182252 29.546817 8.495244 -8.790374 -15.899109 0.000000 0.000000 0.000000 -5.004662 -7.605423 5.651917 -56.532388 -6.384522 -3.292328 -7.394669 -32.949455 4.999395 0.000000 0.000000 0.000000 18.404821 -5.686844 -13.749413 59.491602 -16.157429 -16.283030 25.196568 30.589656 4.253683 0.000000 0.000000 0.000000 
4.395152 0.952840 0.115055 0.571536 -69.050749 -0.054302 -3.362002 0.646624 4.454205 1.697228 0.898681 8.008834 12.636053 16.917792 20.268247 0.000000 0.000000 0.000000 -3.192854 0.911856 0.284186 6.207760 1.051319 8.353308 -21.148152 -28.749874 18.536180 0.000000 0.000000 0.000000 7.152566 -0.188066 2.957222 -10.109828 1.430378 -20.873758 -0.238472 14.083314 29.687742 8.630520 -8.891600 -15.313624 0.000000 0.000000 0.000000 -5.766906 -8.187453 6.310186 -56.460213 -7.981297 -2.776372 -6.257359 -34.201077 4.942940 0.000000 0.000000 0.000000 18.897149 -5.492412 -14.055863 59.087420 -16.375034 -16.082367 25.089971 31.859104 4.412795 0.000000 0.000000 0.000000 
4.417053 0.953175 0.110048 -0.075840 -69.498086 0.250930 -3.003808 0.626046 4.211254 0.914032 0.909263 6.665191 12.726906 17.617040 19.185617 0.000000 0.000000 0.000000 -3.356049 0.911909 -0.679106 6.157674 1.063350 8.262480 -19.795309 -27.789334 17.436410 0.000000 0.000000 0.000000 7.236034 -0.233961 3.588374 -10.278994 1.465746 -21.483640 -0.314240 13.814880 30.349194 8.951619 -9.175216 -15.767683 0.000000 0.000000 0.000000 -5.589104 -8.980379 6.679660 -56.517093 -8.804149 -2.311845 -5.582341 -35.597740 4.986427 0.000000 0.000000 0.000000 19.109741 -5.277803 -14.357764 59.146161 -16.267971 -16.001378 24.153795 32.108386 4.178976 0.000000 0.000000 0.000000 
